# xmcd
#
# Track frame offsets:
#	150
#	13764
#	26741
#	44730
#	60065
#	76673
#	91786
#	108317
#	121452
#	135457
#	149646
#
# Disc length: 2172 seconds
#
# Revision: 0
# Processed by: cddbd v1.5.2PL0 Copyright (c) Steve Scherf et al.
# Submitted via: EasyCDDAExtractor 9.0.0.1
#
DISCID=8a087a0b
DTITLE=Raquel Koehler
DYEAR=1900
DGENRE=
TTITLE0=Nem Quero Saber
TTITLE1=Volte Para o Seu Lugar
TTITLE2=Quem Canta
TTITLE3=LInha Do Mar
TTITLE4=Fazer O Que???
TTITLE5=Onda
TTITLE6=Sangue Latino
TTITLE7=Mude Se For Capaz
TTITLE8=Pilhagem
TTITLE9=Sabia Que Seria So
TTITLE10=Jorge Da Capadocia
EXTD=
EXTT0=
EXTT1=
EXTT2=
EXTT3=
EXTT4=
EXTT5=
EXTT6=
EXTT7=
EXTT8=
EXTT9=
EXTT10=
PLAYORDER=
